<svg width="48" height="48" viewBox="0 0 48 48" xmlns="http://www.w3.org/2000/svg">
  <rect width="48" height="48" rx="8" fill="#14110E"/>
  <g transform="translate(3.2,9.6) scale(0.8)" fill="none" stroke="#A9863F" stroke-width="1.25" stroke-linejoin="round" stroke-linecap="round">
    <path d="M4 34 V14 H18 V9.5 Q26 2.5 34 9.5 V14 H48 V34 Z" stroke-width="1.5"/>
    <path d="M2.5 34 H49.5" stroke-width="1.9"/>
    <path d="M18 9.5 H34"/>
    <path d="M18 13 H34"/>
    <circle cx="26" cy="8" r="1.2" fill="#8E2B20" stroke="none"/>
    <path d="M18 9.5 V7"/>
    <path d="M34 9.5 V7"/>
    <path d="M26 5.8 V3.2"/>
    <path d="M4 23 H48"/>
    <path d="M22.5 22 V17 C22.5 14 29.5 14 29.5 17 V22"/>
    <path d="M22 22 H30" stroke-width="1"/>
    <path d="M7.5 21.5 V16.5 H10.5 V21.5"/>
    <path d="M12.5 21.5 V16.5 H15.5 V21.5"/>
    <path d="M36.5 21.5 V16.5 H39.5 V21.5"/>
    <path d="M41.5 21.5 V16.5 H44.5 V21.5"/>
    <path d="M23 34 V26 C23 23.4 29 23.4 29 26 V34"/>
    <path d="M7.5 34 V27 H10.5 V34"/>
    <path d="M12.5 34 V27 H15.5 V34"/>
    <path d="M36.5 34 V27 H39.5 V34"/>
    <path d="M41.5 34 V27 H44.5 V34"/>
  </g>
</svg>
