<svg width="48" height="48" viewBox="0 0 48 48" xmlns="http://www.w3.org/2000/svg">
  <rect width="48" height="48" rx="8" fill="#14110E"/>
  <g transform="translate(3.2,10.4) scale(0.8)" fill="none" stroke="#A9863F" stroke-width="1.7" stroke-linejoin="round" stroke-linecap="round">
    <path d="M5 31 V13 H21 V11 C21 6.5 31 6.5 31 11 V13 H47 V31"/>
    <path d="M3 31 H49" stroke-width="1.9"/>
    <path d="M5 13 H47" stroke-width="1.8"/>
    <path d="M5 22 H47" stroke-width="1.2"/>
    <circle cx="26" cy="9.2" r="1.3" fill="#8E2B20" stroke="none"/>
    <path d="M22.5 21.5 V16.5 C22.5 12.8 29.5 12.8 29.5 16.5 V21.5"/>
    <path d="M9 21.5 V16.5 H11.5 V21.5"/>
    <path d="M13.5 21.5 V16.5 H16 V21.5"/>
    <path d="M36 21.5 V16.5 H38.5 V21.5"/>
    <path d="M40.5 21.5 V16.5 H43 V21.5"/>
    <path d="M23 31 V25.5 C23 23.6 29 23.6 29 25.5 V31"/>
    <path d="M9 31 V25 H11.5 V31"/>
    <path d="M36 31 V25 H38.5 V31"/>
  </g>
</svg>
