<svg width="48" height="48" viewBox="0 0 48 48" xmlns="http://www.w3.org/2000/svg">
  <rect width="48" height="48" rx="8" fill="#14110E"/>
  <g transform="translate(2.6,4.2) scale(0.89)" fill="none" stroke="#A9863F" stroke-width="1.6" stroke-linejoin="round" stroke-linecap="round">
    <path d="M5 37 V18 H18 V12 C18 6.5 20.5 5 24 5 C27.5 5 30 6.5 30 12 V18 H43 V37"/>
    <path d="M3 37 H45" stroke-width="1.7"/>
    <path d="M5 25 H43" stroke-width="1.2"/>
    <path d="M20 25 V17 C20 12.8 28 12.8 28 17 V25" stroke-width="1.3"/>
    <circle cx="24" cy="9.6" r="1.3" fill="#8E2B20" stroke="none"/>
    <path d="M19 37 V31.5 C19 30 21 30 21 31.5 V37" stroke-width="1.2"/>
    <path d="M22.6 37 V30.4 C22.6 28.4 25.4 28.4 25.4 30.4 V37" stroke-width="1.2"/>
    <path d="M27 37 V31.5 C27 30 29 30 29 31.5 V37" stroke-width="1.2"/>
    <path d="M9 24 V18 H13 V24" stroke-width="1.2"/>
    <path d="M8.4 18 L11 15.4 L13.6 18" stroke-width="1.2"/>
    <path d="M35 24 V18 H39 V24" stroke-width="1.2"/>
    <path d="M34.4 18 L37 15.4 L39.6 18" stroke-width="1.2"/>
  </g>
</svg>
